<?xml version="1.0" encoding="iso-8859-1"?>
<!-- Generator: Adobe Illustrator 19.0.0, SVG Export Plug-In . SVG Version: 6.00 Build 0)  -->
<svg version="1.1" id="Layer_1" xmlns="http://www.w3.org/2000/svg" xmlns:xlink="http://www.w3.org/1999/xlink" x="0px" y="0px"
	 viewBox="0 0 512 512" style="enable-background:new 0 0 512 512;" xml:space="preserve">
<polygon style="fill:#F1543F;" points="322.133,155.733 187.733,155.733 120.533,0 254.933,0 "/>
<path style="fill:#F8B64C;" d="M326.4,227.2H185.6c-18.133,0-33.067-14.933-33.067-33.067V160c0-18.133,14.933-33.067,33.067-33.067
	h141.867c18.133,0,33.067,14.933,33.067,33.067v34.133C359.467,212.267,344.533,227.2,326.4,227.2z M185.6,155.733
	c-2.133,0-4.267,2.133-4.267,4.267v34.133c0,2.133,2.133,4.267,4.267,4.267h141.867c2.133,0,4.267-2.133,4.267-4.267V160
	c0-2.133-2.133-4.267-4.267-4.267H185.6z"/>
<circle style="fill:#FFD15C;" cx="256" cy="344.533" r="167.467"/>
<path style="fill:#F8B64C;" d="M256,485.333c-77.867,0-140.8-62.933-140.8-140.8S178.133,202.667,256,202.667
	s140.8,64,140.8,141.867S333.867,485.333,256,485.333z M256,221.867c-67.2,0-122.667,55.467-122.667,122.667S188.8,467.2,256,467.2
	s122.667-55.467,122.667-122.667C378.667,276.267,323.2,221.867,256,221.867z"/>
<polygon style="fill:#FF7058;" points="189.867,155.733 324.267,155.733 391.467,0 257.067,0 "/>
<path style="fill:#FFFFFF;" d="M337.067,325.333c6.4-4.267,3.2-13.867-4.267-13.867h-48c-3.2,0-6.4-2.133-7.467-5.333L262.4,260.267
	c-2.133-6.4-11.733-6.4-13.867,0L233.6,306.133c-1.067,3.2-4.267,5.333-7.467,5.333h-48c-7.467,0-10.667,9.6-4.267,13.867
	l38.4,27.733c2.133,2.133,4.267,5.333,3.2,8.533l-14.933,45.867c-2.133,6.4,5.333,12.8,11.733,8.533l38.4-27.733
	c2.133-2.133,6.4-2.133,8.533,0L298.667,416c6.4,4.267,13.867-1.067,11.733-8.533L295.467,361.6c-1.067-3.2,0-6.4,3.2-8.533
	L337.067,325.333z"/>
<g>
</g>
<g>
</g>
<g>
</g>
<g>
</g>
<g>
</g>
<g>
</g>
<g>
</g>
<g>
</g>
<g>
</g>
<g>
</g>
<g>
</g>
<g>
</g>
<g>
</g>
<g>
</g>
<g>
</g>
</svg>
