<?xml version="1.0" encoding="iso-8859-1"?>
<!-- Generator: Adobe Illustrator 19.0.0, SVG Export Plug-In . SVG Version: 6.00 Build 0)  -->
<svg version="1.1" id="Layer_1" xmlns="http://www.w3.org/2000/svg" xmlns:xlink="http://www.w3.org/1999/xlink" x="0px" y="0px"
	 viewBox="0 0 512 512" style="enable-background:new 0 0 512 512;" xml:space="preserve">
<circle style="fill:#40596B;" cx="256" cy="256" r="256"/>
<path style="fill:#FFD15C;" d="M456.533,270.933c-1.067,0-1.067,0-2.133,0c-26.667,7.467-41.6-9.6-41.6-9.6
	c-59.733-42.667-126.933,5.333-126.933,5.333C210.133,211.2,150.4,281.6,150.4,281.6c6.4-9.6,10.667-53.333,10.667-53.333
	c6.4-54.4,28.8-104.533,28.8-104.533c4.267-23.467,30.933-20.267,30.933-20.267c12.8,9.6,26.667,9.6,26.667,9.6
	c24.533,6.4,28.8,0,28.8,0c3.2,14.933,12.8,9.6,12.8,9.6c18.133-9.6,5.333-24.533,5.333-24.533
	c-7.467-7.467,4.267-11.733,4.267-11.733c10.667-4.267,7.467-10.667,7.467-10.667L281.6,20.267
	C258.133,14.933,202.667,38.4,202.667,38.4c-48,10.667-65.067,66.133-65.067,66.133S4.267,280.533,21.333,332.8s96,59.733,96,59.733
	c34.133,16,70.4,22.4,70.4,22.4c69.333,3.2,131.2-22.4,131.2-22.4c-1.067,41.6,27.733,77.867,42.667,93.867l1.067,1.067
	C449.067,448,508.8,362.667,510.933,262.4c0-1.067,0-2.133,0-2.133C487.467,258.133,456.533,270.933,456.533,270.933z"/>
<g>
</g>
<g>
</g>
<g>
</g>
<g>
</g>
<g>
</g>
<g>
</g>
<g>
</g>
<g>
</g>
<g>
</g>
<g>
</g>
<g>
</g>
<g>
</g>
<g>
</g>
<g>
</g>
<g>
</g>
</svg>
